<svg width="800" height="1000" viewBox="0 0 800 1000" fill="none" xmlns="http://www.w3.org/2000/svg">
<mask id="path-1-inside-1_59_641" fill="white">
<path fill-rule="evenodd" clip-rule="evenodd" d="M586.701 890C593.634 890 599.685 885.254 601.155 878.478C609.466 840.151 614 798.778 614 755.628C614 695.587 605.222 638.987 589.703 589.245C587.786 583.1 582.044 579 575.607 579L224.393 579C217.956 579 212.214 583.1 210.297 589.245C194.778 638.987 186 695.587 186 755.628C186 798.778 190.534 840.151 198.845 878.478C200.315 885.254 206.366 890 213.299 890H586.701Z"/>
</mask>
<path fill-rule="evenodd" clip-rule="evenodd" d="M586.701 890C593.634 890 599.685 885.254 601.155 878.478C609.466 840.151 614 798.778 614 755.628C614 695.587 605.222 638.987 589.703 589.245C587.786 583.1 582.044 579 575.607 579L224.393 579C217.956 579 212.214 583.1 210.297 589.245C194.778 638.987 186 695.587 186 755.628C186 798.778 190.534 840.151 198.845 878.478C200.315 885.254 206.366 890 213.299 890H586.701Z" fill="#9BAFBA"/>
<path d="M589.703 589.245L572.52 594.606L589.703 589.245ZM601.155 878.478L618.746 882.293L601.155 878.478ZM596 755.628C596 797.528 591.597 837.621 583.564 874.663L618.746 882.293C627.336 842.681 632 800.028 632 755.628H596ZM572.52 594.606C587.469 642.522 596 697.307 596 755.628H632C632 693.866 622.975 635.452 606.886 583.884L572.52 594.606ZM224.393 597L575.607 597V561L224.393 561V597ZM204 755.628C204 697.307 212.531 642.522 227.48 594.606L193.114 583.884C177.025 635.452 168 693.866 168 755.628H204ZM216.436 874.663C208.403 837.621 204 797.528 204 755.628H168C168 800.028 172.664 842.681 181.254 882.293L216.436 874.663ZM586.701 872H213.299V908H586.701V872ZM181.254 882.293C184.57 897.585 198.141 908 213.299 908V872C214.591 872 216.059 872.922 216.436 874.663L181.254 882.293ZM224.393 561C210.323 561 197.448 569.991 193.114 583.884L227.48 594.606C226.98 596.209 225.589 597 224.393 597V561ZM606.886 583.884C602.552 569.991 589.677 561 575.607 561V597C574.411 597 573.02 596.209 572.52 594.606L606.886 583.884ZM583.564 874.663C583.941 872.922 585.409 872 586.701 872V908C601.859 908 615.43 897.585 618.746 882.293L583.564 874.663Z" fill="black" mask="url(#path-1-inside-1_59_641)"/>
<path fill-rule="evenodd" clip-rule="evenodd" d="M512.917 871.369C516.222 860.494 518 848.955 518 837C518 771.83 465.17 719 400 719C334.83 719 282 771.83 282 837C282 848.955 283.778 860.494 287.083 871.369H512.917Z" fill="white"/>
<path fill-rule="evenodd" clip-rule="evenodd" d="M210.379 205.54C198.98 277.271 205.605 335.144 215.454 373.362C201.722 400.963 194 432.08 194 465C194 578.771 286.229 671 400 671C513.771 671 606 578.771 606 465C606 435.96 599.991 408.323 589.148 383.266C600.394 345.52 609.401 283.772 596.97 205.54C595.655 197.266 587.601 191.829 579.564 194.197C533.647 207.728 496.477 238.168 475.258 273.18C451.945 264.026 426.56 259 400 259C375.69 259 352.363 263.211 330.71 270.943C309.28 236.876 272.721 207.439 227.784 194.197C219.747 191.829 211.694 197.266 210.379 205.54Z" fill="#9BAFBA"/>
<path d="M215.454 373.362L223.512 377.371L225.007 374.367L224.169 371.117L215.454 373.362ZM210.379 205.54L201.49 204.128L201.49 204.128L210.379 205.54ZM589.148 383.266L580.523 380.696L579.588 383.834L580.889 386.84L589.148 383.266ZM596.97 205.54L605.858 204.128L605.858 204.128L596.97 205.54ZM579.564 194.197L577.02 185.564L577.02 185.564L579.564 194.197ZM475.258 273.18L471.969 281.557L479.025 284.328L482.955 277.845L475.258 273.18ZM330.71 270.943L323.091 275.736L326.936 281.848L333.736 279.419L330.71 270.943ZM227.784 194.197L230.328 185.564L230.328 185.564L227.784 194.197ZM224.169 371.117C214.615 334.039 208.071 277.411 219.267 206.953L201.49 204.128C189.89 277.13 196.596 336.249 206.739 375.608L224.169 371.117ZM203 465C203 433.502 210.386 403.754 223.512 377.371L207.396 369.354C193.059 398.172 185 430.658 185 465H203ZM400 662C291.2 662 203 573.8 203 465H185C185 583.741 281.259 680 400 680V662ZM597 465C597 573.8 508.8 662 400 662V680C518.741 680 615 583.741 615 465H597ZM580.889 386.84C591.252 410.79 597 437.212 597 465H615C615 434.708 608.73 405.856 597.408 379.692L580.889 386.84ZM588.081 206.953C600.294 283.804 591.399 344.192 580.523 380.696L597.774 385.835C609.389 346.849 618.509 283.74 605.858 204.128L588.081 206.953ZM582.108 202.83C584.6 202.095 587.563 203.689 588.081 206.953L605.858 204.128C603.747 190.842 590.602 181.562 577.02 185.564L582.108 202.83ZM482.955 277.845C503.025 244.729 538.369 215.719 582.108 202.83L577.02 185.564C528.925 199.737 489.929 231.608 467.561 268.515L482.955 277.845ZM400 268C425.416 268 449.687 272.808 471.969 281.557L478.547 264.802C454.204 255.244 427.704 250 400 250V268ZM333.736 279.419C354.432 272.029 376.736 268 400 268V250C374.644 250 350.294 254.393 327.683 262.468L333.736 279.419ZM225.24 202.83C268.041 215.442 302.81 243.494 323.091 275.736L338.328 266.151C315.75 230.258 277.401 199.435 230.328 185.564L225.24 202.83ZM219.267 206.953C219.786 203.689 222.748 202.095 225.24 202.83L230.328 185.564C216.747 181.562 203.601 190.842 201.49 204.128L219.267 206.953Z" fill="black"/>
<path d="M361 266V329" stroke="black" stroke-width="18" stroke-linecap="round"/>
<path d="M400 267L400 346" stroke="black" stroke-width="18" stroke-linecap="round"/>
<path d="M440 266V329" stroke="black" stroke-width="18" stroke-linecap="round"/>
<path d="M154 445L233 445" stroke="black" stroke-width="18" stroke-linecap="round"/>
<path d="M154 480L233 480" stroke="black" stroke-width="18" stroke-linecap="round"/>
<path d="M154 515L233 515" stroke="black" stroke-width="18" stroke-linecap="round"/>
<path d="M566 445L645 445" stroke="black" stroke-width="18" stroke-linecap="round"/>
<path d="M566 480L645 480" stroke="black" stroke-width="18" stroke-linecap="round"/>
<path d="M566 515L645 515" stroke="black" stroke-width="18" stroke-linecap="round"/>
<circle cx="400" cy="480" r="19" fill="#E94728" stroke="black" stroke-width="14"/>
<path d="M493 484C493 535.362 451.362 577 400 577C348.638 577 307 535.362 307 484" stroke="black" stroke-width="14" stroke-linecap="round"/>
<mask id="path-17-inside-2_59_641" fill="white">
<path fill-rule="evenodd" clip-rule="evenodd" d="M307.977 371.733C293.489 363.369 274.964 368.332 266.6 382.82L224.81 455.202L213.299 442.826C201.47 430.997 180.022 433.267 168.193 445.096C156.364 456.925 154.448 478.02 166.277 489.849L195.938 526.561L104.572 647.458C87.0548 677.798 99.8301 717.968 133.106 737.18C166.382 756.392 207.558 747.371 225.075 717.031L285.344 589.113C305.684 586.578 324.779 575.818 337.377 558.243L337.745 558.456L384.526 477.428C392.89 462.941 387.927 444.415 373.439 436.051C368.939 433.453 364.05 432.141 359.196 432.001C365.104 418.113 359.851 401.683 346.451 393.946C338.85 389.558 330.138 388.838 322.365 391.237C320.557 383.306 315.577 376.121 307.977 371.733Z"/>
</mask>
<path fill-rule="evenodd" clip-rule="evenodd" d="M307.977 371.733C293.489 363.369 274.964 368.332 266.6 382.82L224.81 455.202L213.299 442.826C201.47 430.997 180.022 433.267 168.193 445.096C156.364 456.925 154.448 478.02 166.277 489.849L195.938 526.561L104.572 647.458C87.0548 677.798 99.8301 717.968 133.106 737.18C166.382 756.392 207.558 747.371 225.075 717.031L285.344 589.113C305.684 586.578 324.779 575.818 337.377 558.243L337.745 558.456L384.526 477.428C392.89 462.941 387.927 444.415 373.439 436.051C368.939 433.453 364.05 432.141 359.196 432.001C365.104 418.113 359.851 401.683 346.451 393.946C338.85 389.558 330.138 388.838 322.365 391.237C320.557 383.306 315.577 376.121 307.977 371.733Z" fill="#9BAFBA"/>
<path d="M266.6 382.82L251.011 373.82L251.011 373.82L266.6 382.82ZM224.81 455.202L211.629 467.461C215.518 471.643 221.161 473.731 226.836 473.088C232.51 472.445 237.543 469.148 240.398 464.202L224.81 455.202ZM213.299 442.826L226.48 430.567C226.332 430.408 226.181 430.252 226.027 430.098L213.299 442.826ZM168.193 445.096L155.465 432.368L155.465 432.368L168.193 445.096ZM166.277 489.849L180.278 478.536C179.879 478.042 179.454 477.57 179.004 477.121L166.277 489.849ZM195.938 526.561L210.299 537.414C215.282 530.819 215.134 521.678 209.94 515.249L195.938 526.561ZM104.572 647.458L90.2114 636.605C89.7642 637.197 89.354 637.816 88.9832 638.458L104.572 647.458ZM225.075 717.031L240.663 726.031C240.913 725.598 241.145 725.155 241.358 724.702L225.075 717.031ZM285.344 589.113L283.117 571.251C276.995 572.015 271.69 575.86 269.06 581.441L285.344 589.113ZM337.377 558.243L346.377 542.655C338.36 538.026 328.14 540.233 322.747 547.757L337.377 558.243ZM337.745 558.456L328.745 574.044C332.879 576.431 337.792 577.078 342.404 575.842C347.015 574.607 350.946 571.59 353.333 567.456L337.745 558.456ZM384.526 477.428L368.938 468.428L368.938 468.428L384.526 477.428ZM373.439 436.051L382.439 420.463L382.439 420.463L373.439 436.051ZM359.196 432.001L342.633 424.955C340.304 430.43 340.831 436.702 344.041 441.712C347.251 446.721 352.729 449.821 358.676 449.993L359.196 432.001ZM322.365 391.237L304.816 395.239C305.929 400.123 309.027 404.321 313.365 406.826C317.703 409.33 322.888 409.914 327.674 408.437L322.365 391.237ZM282.188 391.82C285.582 385.942 293.098 383.928 298.977 387.321L316.977 356.145C293.88 342.81 264.346 350.723 251.011 373.82L282.188 391.82ZM240.398 464.202L282.188 391.82L251.011 373.82L209.221 446.202L240.398 464.202ZM200.119 455.084L211.629 467.461L237.991 442.944L226.48 430.567L200.119 455.084ZM180.921 457.824C183.516 455.229 187.637 453.343 191.971 453.047C196.249 452.756 199.075 454.058 200.571 455.554L226.027 430.098C215.694 419.765 201.882 416.288 189.521 417.131C177.218 417.97 164.699 423.134 155.465 432.368L180.921 457.824ZM179.004 477.121C175.559 473.675 174.686 464.059 180.921 457.824L155.465 432.368C138.042 449.791 133.336 482.364 153.549 502.576L179.004 477.121ZM209.94 515.249L180.278 478.536L152.275 501.161L181.937 537.873L209.94 515.249ZM181.578 515.708L90.2114 636.605L118.932 658.311L210.299 537.414L181.578 515.708ZM88.9832 638.458C65.7315 678.731 83.6072 729.386 124.106 752.768L142.106 721.592C116.053 706.55 108.378 676.865 120.16 656.458L88.9832 638.458ZM124.106 752.768C164.605 776.151 217.412 766.304 240.663 726.031L209.487 708.031C197.704 728.438 168.159 736.633 142.106 721.592L124.106 752.768ZM241.358 724.702L301.627 596.785L269.06 581.441L208.792 709.359L241.358 724.702ZM322.747 547.757C313.179 561.105 298.657 569.314 283.117 571.251L287.57 606.975C312.711 603.841 336.379 590.532 352.007 568.73L322.747 547.757ZM346.745 542.867L346.377 542.655L328.377 573.832L328.745 574.044L346.745 542.867ZM368.938 468.428L322.156 549.456L353.333 567.456L400.115 486.428L368.938 468.428ZM364.439 451.64C370.317 455.033 372.331 462.55 368.938 468.428L400.115 486.428C413.449 463.331 405.536 433.798 382.439 420.463L364.439 451.64ZM358.676 449.993C360.621 450.049 362.586 450.57 364.439 451.64L382.439 420.463C375.292 416.336 367.478 414.233 359.717 414.008L358.676 449.993ZM337.451 409.534C342.876 412.667 345.022 419.337 342.633 424.955L375.76 439.046C385.185 416.89 376.826 390.699 355.451 378.358L337.451 409.534ZM327.674 408.437C330.862 407.453 334.366 407.754 337.451 409.534L355.451 378.358C343.334 371.362 329.415 370.223 317.056 374.038L327.674 408.437ZM298.977 387.321C302.061 389.102 304.074 391.987 304.816 395.239L339.915 387.235C337.039 374.625 329.094 363.14 316.977 356.145L298.977 387.321Z" fill="black" mask="url(#path-17-inside-2_59_641)"/>
<path d="M169 585L204 614" stroke="black" stroke-width="18" stroke-linecap="round"/>
<path d="M145 614L180 643" stroke="black" stroke-width="18" stroke-linecap="round"/>
<path d="M123 643L158 672" stroke="black" stroke-width="18" stroke-linecap="round"/>
<mask id="path-22-inside-3_59_641" fill="white">
<path fill-rule="evenodd" clip-rule="evenodd" d="M492.18 371.733C506.667 363.369 525.192 368.332 533.556 382.82L575.346 455.202L586.857 442.826C598.686 430.997 620.134 433.267 631.963 445.096C643.792 456.925 645.709 478.02 633.88 489.849L604.218 526.561L695.585 647.458C713.101 677.798 700.326 717.968 667.05 737.18C633.774 756.392 592.598 747.371 575.081 717.031L514.813 589.113C494.473 586.578 475.377 575.818 462.78 558.243L462.411 558.456L415.63 477.428C407.266 462.941 412.23 444.415 426.717 436.051C431.217 433.453 436.106 432.141 440.96 432.001C435.053 418.113 440.305 401.683 453.706 393.946C461.306 389.558 470.018 388.838 477.791 391.237C479.6 383.306 484.579 376.121 492.18 371.733Z"/>
</mask>
<path fill-rule="evenodd" clip-rule="evenodd" d="M492.18 371.733C506.667 363.369 525.192 368.332 533.556 382.82L575.346 455.202L586.857 442.826C598.686 430.997 620.134 433.267 631.963 445.096C643.792 456.925 645.709 478.02 633.88 489.849L604.218 526.561L695.585 647.458C713.101 677.798 700.326 717.968 667.05 737.18C633.774 756.392 592.598 747.371 575.081 717.031L514.813 589.113C494.473 586.578 475.377 575.818 462.78 558.243L462.411 558.456L415.63 477.428C407.266 462.941 412.23 444.415 426.717 436.051C431.217 433.453 436.106 432.141 440.96 432.001C435.053 418.113 440.305 401.683 453.706 393.946C461.306 389.558 470.018 388.838 477.791 391.237C479.6 383.306 484.579 376.121 492.18 371.733Z" fill="#9BAFBA"/>
<path d="M533.556 382.82L549.145 373.82L549.145 373.82L533.556 382.82ZM575.346 455.202L588.527 467.461C584.638 471.643 578.995 473.731 573.321 473.088C567.646 472.445 562.613 469.148 559.758 464.202L575.346 455.202ZM586.857 442.826L573.676 430.567C573.824 430.408 573.975 430.252 574.129 430.098L586.857 442.826ZM631.963 445.096L644.691 432.368L644.691 432.368L631.963 445.096ZM633.88 489.849L619.879 478.536C620.278 478.042 620.703 477.57 621.152 477.121L633.88 489.849ZM604.218 526.561L589.857 537.414C584.874 530.819 585.022 521.678 590.217 515.249L604.218 526.561ZM695.585 647.458L709.945 636.605C710.392 637.197 710.802 637.816 711.173 638.458L695.585 647.458ZM575.081 717.031L559.493 726.031C559.243 725.598 559.011 725.155 558.798 724.702L575.081 717.031ZM514.813 589.113L517.039 571.251C523.161 572.015 528.466 575.86 531.096 581.441L514.813 589.113ZM462.78 558.243L453.78 542.655C461.796 538.026 472.017 540.233 477.41 547.757L462.78 558.243ZM462.411 558.456L471.411 574.044C467.277 576.431 462.364 577.078 457.753 575.842C453.141 574.607 449.21 571.59 446.823 567.456L462.411 558.456ZM415.63 477.428L431.219 468.428L431.219 468.428L415.63 477.428ZM426.717 436.051L417.717 420.463L417.717 420.463L426.717 436.051ZM440.96 432.001L457.524 424.955C459.853 430.43 459.325 436.702 456.116 441.712C452.906 446.721 447.427 449.821 441.48 449.993L440.96 432.001ZM477.791 391.237L495.341 395.239C494.227 400.123 491.129 404.321 486.791 406.826C482.453 409.33 477.268 409.914 472.482 408.437L477.791 391.237ZM517.968 391.82C514.574 385.942 507.058 383.928 501.18 387.321L483.18 356.145C506.276 342.81 535.81 350.723 549.145 373.82L517.968 391.82ZM559.758 464.202L517.968 391.82L549.145 373.82L590.935 446.202L559.758 464.202ZM600.038 455.084L588.527 467.461L562.166 442.944L573.676 430.567L600.038 455.084ZM619.235 457.824C616.64 455.229 612.52 453.343 608.185 453.047C603.907 452.756 601.081 454.058 599.585 455.554L574.129 430.098C584.462 419.765 598.274 416.288 610.635 417.131C622.939 417.97 635.457 423.134 644.691 432.368L619.235 457.824ZM621.152 477.121C624.597 473.675 625.47 464.059 619.235 457.824L644.691 432.368C662.114 449.791 666.82 482.364 646.608 502.576L621.152 477.121ZM590.217 515.249L619.879 478.536L647.881 501.161L618.219 537.873L590.217 515.249ZM618.578 515.708L709.945 636.605L681.224 658.311L589.857 537.414L618.578 515.708ZM711.173 638.458C734.425 678.731 716.549 729.386 676.05 752.768L658.05 721.592C684.103 706.55 691.778 676.865 679.996 656.458L711.173 638.458ZM676.05 752.768C635.551 776.151 582.745 766.304 559.493 726.031L590.67 708.031C602.452 728.438 631.997 736.633 658.05 721.592L676.05 752.768ZM558.798 724.702L498.529 596.785L531.096 581.441L591.364 709.359L558.798 724.702ZM477.41 547.757C486.977 561.105 501.499 569.314 517.039 571.251L512.586 606.975C487.446 603.841 463.777 590.532 448.15 568.73L477.41 547.757ZM453.411 542.867L453.78 542.655L471.78 573.832L471.411 574.044L453.411 542.867ZM431.219 468.428L478 549.456L446.823 567.456L400.042 486.428L431.219 468.428ZM435.717 451.64C429.839 455.033 427.825 462.55 431.219 468.428L400.042 486.428C386.707 463.331 394.62 433.798 417.717 420.463L435.717 451.64ZM441.48 449.993C439.535 450.049 437.57 450.57 435.717 451.64L417.717 420.463C424.864 416.336 432.678 414.233 440.44 414.008L441.48 449.993ZM462.706 409.534C457.28 412.667 455.134 419.337 457.524 424.955L424.396 439.046C414.971 416.89 423.33 390.699 444.706 378.358L462.706 409.534ZM472.482 408.437C469.295 407.453 465.79 407.754 462.706 409.534L444.706 378.358C456.823 371.362 470.742 370.223 483.1 374.038L472.482 408.437ZM501.18 387.321C498.095 389.102 496.082 391.987 495.341 395.239L460.242 387.235C463.117 374.625 471.063 363.14 483.18 356.145L501.18 387.321Z" fill="black" mask="url(#path-22-inside-3_59_641)"/>
<path d="M631.156 585L596.156 614" stroke="black" stroke-width="18" stroke-linecap="round"/>
<path d="M655.156 614L620.156 643" stroke="black" stroke-width="18" stroke-linecap="round"/>
<path d="M677.156 643L642.156 672" stroke="black" stroke-width="18" stroke-linecap="round"/>
</svg>
