<svg width="800" height="1000" viewBox="0 0 800 1000" fill="none" xmlns="http://www.w3.org/2000/svg">
<g clip-path="url(#clip0_59_675)">
<mask id="path-1-inside-1_59_675" fill="white">
<path fill-rule="evenodd" clip-rule="evenodd" d="M586.701 890C593.634 890 599.685 885.253 601.155 878.478C609.466 840.151 614 798.778 614 755.628C614 695.587 605.222 638.987 589.703 589.245C587.786 583.1 582.044 579 575.607 579L224.393 579C217.956 579 212.214 583.1 210.297 589.245C194.778 638.987 186 695.587 186 755.628C186 798.778 190.534 840.151 198.845 878.478C200.315 885.253 206.366 890 213.299 890H586.701Z"/>
</mask>
<path fill-rule="evenodd" clip-rule="evenodd" d="M586.701 890C593.634 890 599.685 885.253 601.155 878.478C609.466 840.151 614 798.778 614 755.628C614 695.587 605.222 638.987 589.703 589.245C587.786 583.1 582.044 579 575.607 579L224.393 579C217.956 579 212.214 583.1 210.297 589.245C194.778 638.987 186 695.587 186 755.628C186 798.778 190.534 840.151 198.845 878.478C200.315 885.253 206.366 890 213.299 890H586.701Z" fill="#9BAFBA"/>
<path d="M589.703 589.245L572.52 594.606L589.703 589.245ZM601.155 878.478L618.746 882.293L601.155 878.478ZM596 755.628C596 797.528 591.597 837.621 583.564 874.663L618.746 882.293C627.336 842.681 632 800.028 632 755.628H596ZM572.52 594.606C587.469 642.522 596 697.307 596 755.628H632C632 693.866 622.975 635.452 606.886 583.884L572.52 594.606ZM224.393 597L575.607 597V561L224.393 561V597ZM204 755.628C204 697.307 212.531 642.522 227.48 594.606L193.114 583.884C177.025 635.452 168 693.866 168 755.628H204ZM216.436 874.663C208.403 837.621 204 797.528 204 755.628H168C168 800.028 172.664 842.681 181.254 882.293L216.436 874.663ZM586.701 872H213.299V908H586.701V872ZM181.254 882.293C184.57 897.585 198.141 908 213.299 908V872C214.591 872 216.059 872.922 216.436 874.663L181.254 882.293ZM224.393 561C210.323 561 197.448 569.991 193.114 583.884L227.48 594.606C226.98 596.209 225.589 597 224.393 597V561ZM606.886 583.884C602.552 569.991 589.677 561 575.607 561V597C574.411 597 573.02 596.209 572.52 594.606L606.886 583.884ZM583.564 874.663C583.941 872.922 585.409 872 586.701 872V908C601.859 908 615.43 897.585 618.746 882.293L583.564 874.663Z" fill="black" mask="url(#path-1-inside-1_59_675)"/>
<path fill-rule="evenodd" clip-rule="evenodd" d="M512.917 871.369C516.222 860.494 518 848.955 518 837C518 771.83 465.17 719 400 719C334.83 719 282 771.83 282 837C282 848.955 283.778 860.494 287.083 871.369H512.917Z" fill="white"/>
<mask id="path-4-inside-2_59_675" fill="white">
<path fill-rule="evenodd" clip-rule="evenodd" d="M113.007 508.734C128.056 501.43 146.178 507.709 153.482 522.759L189.976 597.95L202.344 586.431C214.991 575.48 236.221 579.282 247.171 591.928C258.122 604.575 258.522 625.753 245.875 636.703L213.658 671.195L296.124 798.33C311.421 829.848 295.799 868.999 261.231 885.776C226.664 902.553 186.241 890.604 170.944 859.086L119.999 727.178C99.8931 723.191 81.6181 711.09 70.3127 692.657L69.9306 692.843L29.0779 608.67C21.7736 593.62 28.0524 575.499 43.1022 568.194C47.7767 565.926 52.7475 564.967 57.5985 565.175C52.7019 550.9 59.1184 534.889 73.0393 528.132C80.9349 524.3 89.6759 524.207 97.2569 527.157C99.6294 519.376 105.111 512.566 113.007 508.734Z"/>
</mask>
<path fill-rule="evenodd" clip-rule="evenodd" d="M113.007 508.734C128.056 501.43 146.178 507.709 153.482 522.759L189.976 597.95L202.344 586.431C214.991 575.48 236.221 579.282 247.171 591.928C258.122 604.575 258.522 625.753 245.875 636.703L213.658 671.195L296.124 798.33C311.421 829.848 295.799 868.999 261.231 885.776C226.664 902.553 186.241 890.604 170.944 859.086L119.999 727.178C99.8931 723.191 81.6181 711.09 70.3127 692.657L69.9306 692.843L29.0779 608.67C21.7736 593.62 28.0524 575.499 43.1022 568.194C47.7767 565.926 52.7475 564.967 57.5985 565.175C52.7019 550.9 59.1184 534.889 73.0393 528.132C80.9349 524.3 89.6759 524.207 97.2569 527.157C99.6294 519.376 105.111 512.566 113.007 508.734Z" fill="#9BAFBA"/>
<path d="M153.482 522.759L169.676 514.899L169.676 514.899L153.482 522.759ZM189.976 597.95L173.783 605.81C176.276 610.947 181.06 614.597 186.674 615.645C192.287 616.693 198.065 615.014 202.244 611.122L189.976 597.95ZM202.344 586.431L190.561 572.823C190.397 572.966 190.235 573.111 190.076 573.259L202.344 586.431ZM247.171 591.928L260.779 580.145L260.779 580.145L247.171 591.928ZM245.875 636.703L234.092 623.096C233.612 623.512 233.155 623.952 232.721 624.416L245.875 636.703ZM213.658 671.195L200.504 658.908C194.862 664.949 194.059 674.056 198.557 680.99L213.658 671.195ZM296.124 798.33L312.317 790.471C311.994 789.804 311.629 789.157 311.225 788.535L296.124 798.33ZM170.944 859.086L154.152 865.571C154.332 866.037 154.532 866.496 154.75 866.946L170.944 859.086ZM119.999 727.178L136.79 720.693C134.568 714.938 129.552 710.722 123.5 709.522L119.999 727.178ZM70.3127 692.657L85.6567 683.247C80.817 675.356 70.7812 672.422 62.4532 676.464L70.3127 692.657ZM69.9306 692.843L53.7371 700.702C55.8215 704.997 59.5267 708.288 64.0375 709.851C68.5483 711.414 73.4953 711.121 77.79 709.036L69.9306 692.843ZM29.0779 608.67L45.2714 600.811L45.2714 600.811L29.0779 608.67ZM43.1022 568.194L35.2427 552.001L35.2427 552.001L43.1022 568.194ZM57.5985 565.175L56.8278 583.159C62.7722 583.414 68.4584 580.714 72.0191 575.948C75.5799 571.181 76.5552 564.963 74.6247 559.335L57.5985 565.175ZM97.2569 527.157L90.7288 543.931C95.3966 545.748 100.61 545.537 105.116 543.35C109.622 541.163 113.014 537.198 114.474 532.407L97.2569 527.157ZM169.676 514.899C158.031 490.906 129.14 480.896 105.147 492.541L120.866 524.928C126.972 521.964 134.325 524.512 137.289 530.618L169.676 514.899ZM206.17 590.091L169.676 514.899L137.289 530.618L173.783 605.81L206.17 590.091ZM190.076 573.259L177.708 584.779L202.244 611.122L214.612 599.603L190.076 573.259ZM260.779 580.145C252.231 570.273 240.115 564.225 227.903 562.506C215.634 560.779 201.608 563.258 190.561 572.823L214.127 600.038C215.726 598.653 218.639 597.557 222.885 598.155C227.187 598.76 231.161 600.937 233.564 603.711L260.779 580.145ZM257.658 650.311C279.268 631.599 276.908 598.772 260.779 580.145L233.564 603.711C239.336 610.377 237.776 619.906 234.092 623.096L257.658 650.311ZM226.812 683.482L259.03 648.99L232.721 624.416L200.504 658.908L226.812 683.482ZM198.557 680.99L281.023 808.126L311.225 788.535L228.759 661.4L198.557 680.99ZM279.93 806.19C290.219 827.389 280.436 856.447 253.372 869.583L269.091 901.97C311.162 881.551 332.623 832.307 312.317 790.471L279.93 806.19ZM253.372 869.583C226.308 882.718 197.426 872.426 187.137 851.227L154.75 866.946C175.055 908.782 227.02 922.389 269.091 901.97L253.372 869.583ZM187.735 852.601L136.79 720.693L103.208 733.663L154.152 865.571L187.735 852.601ZM54.9687 702.068C68.9933 724.935 91.6469 739.906 116.498 744.834L123.5 709.522C108.139 706.476 94.2429 697.246 85.6567 683.247L54.9687 702.068ZM77.79 709.036L78.1722 708.851L62.4532 676.464L62.0711 676.649L77.79 709.036ZM12.8844 616.53L53.7371 700.702L86.1241 684.983L45.2714 600.811L12.8844 616.53ZM35.2427 552.001C11.2496 563.646 1.23941 592.536 12.8844 616.53L45.2714 600.811C42.3077 594.704 44.8553 587.352 50.9617 584.388L35.2427 552.001ZM58.3693 547.192C50.6115 546.859 42.6669 548.398 35.2427 552.001L50.9617 584.388C52.8865 583.454 54.8836 583.075 56.8278 583.159L58.3693 547.192ZM65.1798 511.939C42.9744 522.716 32.7599 548.24 40.5724 571.016L74.6247 559.335C72.644 553.561 75.2624 547.061 80.8987 544.326L65.1798 511.939ZM103.785 510.382C91.7319 505.692 77.767 505.83 65.1798 511.939L80.8987 544.326C84.1027 542.771 87.62 542.722 90.7288 543.931L103.785 510.382ZM105.147 492.541C92.5599 498.65 83.8116 509.536 80.0395 521.907L114.474 532.407C115.447 529.216 117.662 526.483 120.866 524.928L105.147 492.541Z" fill="black" mask="url(#path-4-inside-2_59_675)"/>
<circle cx="128.5" cy="636.5" r="27.5" fill="#FFC4C4"/>
<mask id="path-7-inside-3_59_675" fill="white">
<path fill-rule="evenodd" clip-rule="evenodd" d="M694.584 508.734C679.535 501.43 661.413 507.709 654.109 522.759L617.615 597.95L605.247 586.431C592.6 575.48 571.37 579.282 560.419 591.928C549.469 604.575 549.069 625.753 561.716 636.703L593.933 671.195L511.467 798.33C496.17 829.848 511.792 868.999 546.359 885.776C580.927 902.553 621.35 890.604 636.647 859.086L687.592 727.178C707.698 723.191 725.973 711.09 737.278 692.657L737.66 692.843L778.513 608.67C785.817 593.62 779.538 575.499 764.489 568.194C759.814 565.926 754.843 564.967 749.992 565.175C754.889 550.9 748.472 534.889 734.552 528.132C726.656 524.3 717.915 524.207 710.334 527.157C707.961 519.376 702.48 512.566 694.584 508.734Z"/>
</mask>
<path fill-rule="evenodd" clip-rule="evenodd" d="M694.584 508.734C679.535 501.43 661.413 507.709 654.109 522.759L617.615 597.95L605.247 586.431C592.6 575.48 571.37 579.282 560.419 591.928C549.469 604.575 549.069 625.753 561.716 636.703L593.933 671.195L511.467 798.33C496.17 829.848 511.792 868.999 546.359 885.776C580.927 902.553 621.35 890.604 636.647 859.086L687.592 727.178C707.698 723.191 725.973 711.09 737.278 692.657L737.66 692.843L778.513 608.67C785.817 593.62 779.538 575.499 764.489 568.194C759.814 565.926 754.843 564.967 749.992 565.175C754.889 550.9 748.472 534.889 734.552 528.132C726.656 524.3 717.915 524.207 710.334 527.157C707.961 519.376 702.48 512.566 694.584 508.734Z" fill="#9BAFBA"/>
<path d="M654.109 522.759L637.915 514.899L637.915 514.899L654.109 522.759ZM617.615 597.95L633.808 605.81C631.315 610.947 626.531 614.597 620.917 615.645C615.303 616.693 609.526 615.014 605.347 611.122L617.615 597.95ZM605.247 586.431L617.03 572.823C617.194 572.966 617.356 573.111 617.515 573.259L605.247 586.431ZM560.419 591.928L546.812 580.145L546.812 580.145L560.419 591.928ZM561.716 636.703L573.498 623.096C573.979 623.512 574.436 623.952 574.87 624.416L561.716 636.703ZM593.933 671.195L607.087 658.908C612.729 664.949 613.532 674.056 609.034 680.99L593.933 671.195ZM511.467 798.33L495.273 790.471C495.597 789.804 495.962 789.157 496.366 788.535L511.467 798.33ZM636.647 859.086L653.438 865.571C653.258 866.037 653.059 866.496 652.841 866.946L636.647 859.086ZM687.592 727.178L670.8 720.693C673.023 714.938 678.039 710.722 684.09 709.522L687.592 727.178ZM737.278 692.657L721.934 683.247C726.774 675.356 736.81 672.422 745.138 676.464L737.278 692.657ZM737.66 692.843L753.854 700.702C751.769 704.997 748.064 708.288 743.553 709.851C739.042 711.414 734.096 711.121 729.801 709.036L737.66 692.843ZM778.513 608.67L762.319 600.811L762.319 600.811L778.513 608.67ZM764.489 568.194L772.348 552.001L772.348 552.001L764.489 568.194ZM749.992 565.175L750.763 583.159C744.819 583.414 739.132 580.714 735.572 575.948C732.011 571.181 731.036 564.963 732.966 559.335L749.992 565.175ZM710.334 527.157L716.862 543.931C712.194 545.748 706.981 545.537 702.474 543.35C697.968 541.163 694.577 537.198 693.116 532.407L710.334 527.157ZM637.915 514.899C649.56 490.906 678.451 480.896 702.444 492.541L686.725 524.928C680.619 521.964 673.266 524.512 670.302 530.618L637.915 514.899ZM601.421 590.091L637.915 514.899L670.302 530.618L633.808 605.81L601.421 590.091ZM617.515 573.259L629.883 584.779L605.347 611.122L592.979 599.603L617.515 573.259ZM546.812 580.145C555.36 570.273 567.476 564.225 579.688 562.506C591.957 560.779 605.983 563.258 617.03 572.823L593.464 600.038C591.864 598.653 588.952 597.557 584.706 598.155C580.404 598.76 576.429 600.937 574.027 603.711L546.812 580.145ZM549.933 650.311C528.323 631.599 530.683 598.772 546.812 580.145L574.027 603.711C568.255 610.377 569.815 619.906 573.498 623.096L549.933 650.311ZM580.778 683.482L548.561 648.99L574.87 624.416L607.087 658.908L580.778 683.482ZM609.034 680.99L526.568 808.126L496.366 788.535L578.831 661.4L609.034 680.99ZM527.66 806.19C517.372 827.389 527.155 856.447 554.219 869.583L538.5 901.97C496.429 881.551 474.968 832.307 495.273 790.471L527.66 806.19ZM554.219 869.583C581.283 882.718 610.165 872.426 620.454 851.227L652.841 866.946C632.536 908.782 580.571 922.389 538.5 901.97L554.219 869.583ZM619.856 852.601L670.8 720.693L704.383 733.663L653.438 865.571L619.856 852.601ZM752.622 702.068C738.597 724.935 715.944 739.906 691.093 744.834L684.09 709.522C699.451 706.476 713.348 697.246 721.934 683.247L752.622 702.068ZM729.801 709.036L729.419 708.851L745.138 676.464L745.52 676.649L729.801 709.036ZM794.706 616.53L753.854 700.702L721.467 684.983L762.319 600.811L794.706 616.53ZM772.348 552.001C796.341 563.646 806.351 592.536 794.706 616.53L762.319 600.811C765.283 594.704 762.736 587.352 756.629 584.388L772.348 552.001ZM749.222 547.192C756.979 546.859 764.924 548.398 772.348 552.001L756.629 584.388C754.704 583.454 752.707 583.075 750.763 583.159L749.222 547.192ZM742.411 511.939C764.616 522.716 774.831 548.24 767.018 571.016L732.966 559.335C734.947 553.561 732.328 547.061 726.692 544.326L742.411 511.939ZM703.806 510.382C715.859 505.692 729.824 505.83 742.411 511.939L726.692 544.326C723.488 542.771 719.971 542.722 716.862 543.931L703.806 510.382ZM702.444 492.541C715.031 498.65 723.779 509.536 727.551 521.907L693.116 532.407C692.144 529.216 689.929 526.483 686.725 524.928L702.444 492.541Z" fill="black" mask="url(#path-7-inside-3_59_675)"/>
<circle cx="27.5" cy="27.5" r="27.5" transform="matrix(-1 -2.3354e-09 -2.3354e-09 1 706.59 609)" fill="#FFC4C4"/>
<path fill-rule="evenodd" clip-rule="evenodd" d="M210.379 205.54C198.98 277.271 205.605 335.144 215.454 373.362C201.722 400.963 194 432.08 194 465C194 578.771 286.229 671 400 671C513.771 671 606 578.771 606 465C606 435.96 599.991 408.323 589.148 383.266C600.394 345.52 609.401 283.772 596.97 205.54C595.655 197.266 587.601 191.829 579.564 194.197C533.647 207.728 496.477 238.168 475.258 273.18C451.945 264.026 426.56 259 400 259C375.69 259 352.363 263.211 330.71 270.943C309.28 236.876 272.721 207.439 227.784 194.197C219.747 191.829 211.694 197.266 210.379 205.54Z" fill="#9BAFBA"/>
<path d="M215.454 373.362L223.512 377.371L225.007 374.367L224.169 371.117L215.454 373.362ZM210.379 205.54L201.49 204.128L201.49 204.128L210.379 205.54ZM589.148 383.266L580.523 380.696L579.588 383.834L580.889 386.84L589.148 383.266ZM596.97 205.54L605.858 204.128L605.858 204.128L596.97 205.54ZM579.564 194.197L577.02 185.564L577.02 185.564L579.564 194.197ZM475.258 273.18L471.969 281.557L479.025 284.328L482.955 277.845L475.258 273.18ZM330.71 270.943L323.091 275.736L326.936 281.848L333.736 279.419L330.71 270.943ZM227.784 194.197L230.328 185.564L230.328 185.564L227.784 194.197ZM224.169 371.117C214.615 334.039 208.071 277.411 219.267 206.953L201.49 204.128C189.89 277.13 196.596 336.249 206.739 375.608L224.169 371.117ZM203 465C203 433.502 210.386 403.754 223.512 377.371L207.396 369.354C193.059 398.172 185 430.658 185 465H203ZM400 662C291.2 662 203 573.8 203 465H185C185 583.741 281.259 680 400 680V662ZM597 465C597 573.8 508.8 662 400 662V680C518.741 680 615 583.741 615 465H597ZM580.889 386.84C591.252 410.79 597 437.212 597 465H615C615 434.708 608.73 405.856 597.408 379.692L580.889 386.84ZM588.081 206.953C600.294 283.804 591.399 344.192 580.523 380.696L597.774 385.835C609.389 346.849 618.509 283.74 605.858 204.128L588.081 206.953ZM582.108 202.83C584.6 202.095 587.563 203.689 588.081 206.953L605.858 204.128C603.747 190.842 590.602 181.562 577.02 185.564L582.108 202.83ZM482.955 277.845C503.025 244.729 538.369 215.719 582.108 202.83L577.02 185.564C528.925 199.737 489.929 231.608 467.561 268.515L482.955 277.845ZM400 268C425.416 268 449.687 272.808 471.969 281.557L478.547 264.802C454.204 255.244 427.704 250 400 250V268ZM333.736 279.419C354.432 272.029 376.736 268 400 268V250C374.644 250 350.294 254.393 327.683 262.468L333.736 279.419ZM225.24 202.83C268.041 215.442 302.81 243.494 323.091 275.736L338.328 266.151C315.75 230.258 277.401 199.435 230.328 185.564L225.24 202.83ZM219.267 206.953C219.786 203.689 222.748 202.095 225.24 202.83L230.328 185.564C216.747 181.562 203.601 190.842 201.49 204.128L219.267 206.953Z" fill="black"/>
<path d="M361 266V329" stroke="black" stroke-width="18" stroke-linecap="round"/>
<path d="M400 267L400 346" stroke="black" stroke-width="18" stroke-linecap="round"/>
<path d="M440 266V329" stroke="black" stroke-width="18" stroke-linecap="round"/>
<path d="M154 445L233 445" stroke="black" stroke-width="18" stroke-linecap="round"/>
<path d="M154 480L233 480" stroke="black" stroke-width="18" stroke-linecap="round"/>
<path d="M154 515L233 515" stroke="black" stroke-width="18" stroke-linecap="round"/>
<path d="M566 445L645 445" stroke="black" stroke-width="18" stroke-linecap="round"/>
<path d="M566 480L645 480" stroke="black" stroke-width="18" stroke-linecap="round"/>
<path d="M566 515L645 515" stroke="black" stroke-width="18" stroke-linecap="round"/>
<circle cx="400" cy="480" r="19" fill="#FFC4C4" stroke="black" stroke-width="14"/>
<path d="M485.719 523C482.157 567.223 445.14 602 400 602C354.86 602 317.843 567.223 314.281 523H485.719Z" fill="#FF6565" stroke="black" stroke-width="14"/>
<circle cx="447.571" cy="429.312" r="43.3125" fill="white" stroke="black" stroke-width="14"/>
<circle cx="448.654" cy="429.312" r="13.0168" fill="black" stroke="black" stroke-width="14"/>
<circle cx="352.312" cy="429.312" r="43.3125" fill="white" stroke="black" stroke-width="14"/>
<circle cx="352.313" cy="429.312" r="13.0168" fill="black" stroke="black" stroke-width="14"/>
</g>
<defs>
<clipPath id="clip0_59_675">
<rect width="800" height="1000" fill="white"/>
</clipPath>
</defs>
</svg>
