<svg width="800" height="1000" viewBox="0 0 800 1000" fill="none" xmlns="http://www.w3.org/2000/svg">
<g clip-path="url(#clip0_56_263)">
<mask id="path-1-inside-1_56_263" fill="white">
<path fill-rule="evenodd" clip-rule="evenodd" d="M586.701 890C593.634 890 599.686 885.253 601.155 878.478C609.467 840.151 614 798.778 614 755.628C614 695.587 605.223 638.987 589.704 589.245C587.786 583.1 582.045 579 575.607 579L224.394 579C217.956 579 212.215 583.1 210.297 589.245C194.778 638.987 186 695.587 186 755.628C186 798.778 190.534 840.151 198.846 878.478C200.315 885.253 206.367 890 213.3 890H586.701Z"/>
</mask>
<path fill-rule="evenodd" clip-rule="evenodd" d="M586.701 890C593.634 890 599.686 885.253 601.155 878.478C609.467 840.151 614 798.778 614 755.628C614 695.587 605.223 638.987 589.704 589.245C587.786 583.1 582.045 579 575.607 579L224.394 579C217.956 579 212.215 583.1 210.297 589.245C194.778 638.987 186 695.587 186 755.628C186 798.778 190.534 840.151 198.846 878.478C200.315 885.253 206.367 890 213.3 890H586.701Z" fill="white"/>
<path d="M589.704 589.245L572.521 594.606L589.704 589.245ZM601.155 878.478L618.746 882.293L601.155 878.478ZM596 755.628C596 797.528 591.597 837.621 583.564 874.663L618.746 882.293C627.337 842.681 632 800.028 632 755.628H596ZM572.521 594.606C587.47 642.522 596 697.307 596 755.628H632C632 693.866 622.976 635.452 606.887 583.884L572.521 594.606ZM224.394 597L575.607 597V561L224.394 561V597ZM204 755.628C204 697.307 212.531 642.522 227.48 594.606L193.114 583.884C177.025 635.452 168 693.866 168 755.628H204ZM216.437 874.663C208.404 837.621 204 797.528 204 755.628H168C168 800.028 172.664 842.681 181.255 882.293L216.437 874.663ZM586.701 872H213.3V908H586.701V872ZM181.255 882.293C184.571 897.585 198.142 908 213.3 908V872C214.592 872 216.059 872.922 216.437 874.663L181.255 882.293ZM224.394 561C210.324 561 197.449 569.991 193.114 583.884L227.48 594.606C226.98 596.209 225.589 597 224.394 597V561ZM606.887 583.884C602.552 569.991 589.677 561 575.607 561V597C574.412 597 573.021 596.209 572.521 594.606L606.887 583.884ZM583.564 874.663C583.942 872.922 585.409 872 586.701 872V908C601.859 908 615.43 897.585 618.746 882.293L583.564 874.663Z" fill="black" mask="url(#path-1-inside-1_56_263)"/>
<mask id="path-3-inside-2_56_263" fill="white">
<path fill-rule="evenodd" clip-rule="evenodd" d="M113.007 508.734C128.056 501.43 146.178 507.709 153.482 522.759L189.976 597.95L202.344 586.431C214.991 575.48 236.221 579.282 247.171 591.928C258.122 604.575 258.522 625.753 245.875 636.703L213.658 671.195L296.124 798.33C311.421 829.848 295.799 868.999 261.231 885.776C226.664 902.553 186.241 890.604 170.944 859.086L119.999 727.178C99.8931 723.191 81.6181 711.09 70.3127 692.657L69.9306 692.843L29.0779 608.67C21.7736 593.62 28.0524 575.499 43.1022 568.194C47.7767 565.926 52.7475 564.967 57.5985 565.175C52.7019 550.9 59.1184 534.889 73.0393 528.132C80.9349 524.3 89.6759 524.207 97.2569 527.157C99.6294 519.376 105.111 512.566 113.007 508.734Z"/>
</mask>
<path fill-rule="evenodd" clip-rule="evenodd" d="M113.007 508.734C128.056 501.43 146.178 507.709 153.482 522.759L189.976 597.95L202.344 586.431C214.991 575.48 236.221 579.282 247.171 591.928C258.122 604.575 258.522 625.753 245.875 636.703L213.658 671.195L296.124 798.33C311.421 829.848 295.799 868.999 261.231 885.776C226.664 902.553 186.241 890.604 170.944 859.086L119.999 727.178C99.8931 723.191 81.6181 711.09 70.3127 692.657L69.9306 692.843L29.0779 608.67C21.7736 593.62 28.0524 575.499 43.1022 568.194C47.7767 565.926 52.7475 564.967 57.5985 565.175C52.7019 550.9 59.1184 534.889 73.0393 528.132C80.9349 524.3 89.6759 524.207 97.2569 527.157C99.6294 519.376 105.111 512.566 113.007 508.734Z" fill="white"/>
<path d="M153.482 522.759L169.676 514.899L169.676 514.899L153.482 522.759ZM189.976 597.95L173.783 605.81C176.276 610.947 181.06 614.597 186.674 615.645C192.287 616.693 198.065 615.014 202.244 611.122L189.976 597.95ZM202.344 586.431L190.561 572.823C190.397 572.966 190.235 573.111 190.076 573.259L202.344 586.431ZM247.171 591.928L260.779 580.145L260.779 580.145L247.171 591.928ZM245.875 636.703L234.092 623.096C233.612 623.512 233.155 623.952 232.721 624.416L245.875 636.703ZM213.658 671.195L200.504 658.908C194.862 664.949 194.059 674.056 198.557 680.99L213.658 671.195ZM296.124 798.33L312.317 790.471C311.994 789.804 311.629 789.157 311.225 788.535L296.124 798.33ZM170.944 859.086L154.152 865.571C154.332 866.037 154.532 866.496 154.75 866.946L170.944 859.086ZM119.999 727.178L136.79 720.693C134.568 714.938 129.552 710.722 123.5 709.522L119.999 727.178ZM70.3127 692.657L85.6567 683.247C80.817 675.356 70.7812 672.422 62.4532 676.464L70.3127 692.657ZM69.9306 692.843L53.7371 700.702C55.8215 704.997 59.5267 708.288 64.0375 709.851C68.5483 711.414 73.4953 711.121 77.79 709.036L69.9306 692.843ZM29.0779 608.67L45.2714 600.811L45.2714 600.811L29.0779 608.67ZM43.1022 568.194L35.2427 552.001L35.2427 552.001L43.1022 568.194ZM57.5985 565.175L56.8278 583.159C62.7722 583.414 68.4584 580.714 72.0191 575.948C75.5799 571.181 76.5552 564.963 74.6247 559.335L57.5985 565.175ZM97.2569 527.157L90.7288 543.931C95.3966 545.748 100.61 545.537 105.116 543.35C109.622 541.163 113.014 537.198 114.474 532.407L97.2569 527.157ZM169.676 514.899C158.031 490.906 129.14 480.896 105.147 492.541L120.866 524.928C126.972 521.964 134.325 524.512 137.289 530.618L169.676 514.899ZM206.17 590.091L169.676 514.899L137.289 530.618L173.783 605.81L206.17 590.091ZM190.076 573.259L177.708 584.779L202.244 611.122L214.612 599.603L190.076 573.259ZM260.779 580.145C252.231 570.273 240.115 564.225 227.903 562.506C215.634 560.779 201.608 563.258 190.561 572.823L214.127 600.038C215.726 598.653 218.639 597.557 222.885 598.155C227.187 598.76 231.161 600.937 233.564 603.711L260.779 580.145ZM257.658 650.311C279.268 631.599 276.908 598.772 260.779 580.145L233.564 603.711C239.336 610.377 237.776 619.906 234.092 623.096L257.658 650.311ZM226.812 683.482L259.03 648.99L232.721 624.416L200.504 658.908L226.812 683.482ZM198.557 680.99L281.023 808.126L311.225 788.535L228.759 661.4L198.557 680.99ZM279.93 806.19C290.219 827.389 280.436 856.447 253.372 869.583L269.091 901.97C311.162 881.551 332.623 832.307 312.317 790.471L279.93 806.19ZM253.372 869.583C226.308 882.718 197.426 872.426 187.137 851.227L154.75 866.946C175.055 908.782 227.02 922.389 269.091 901.97L253.372 869.583ZM187.735 852.601L136.79 720.693L103.208 733.663L154.152 865.571L187.735 852.601ZM54.9687 702.068C68.9933 724.935 91.6469 739.906 116.498 744.834L123.5 709.522C108.139 706.476 94.2429 697.246 85.6567 683.247L54.9687 702.068ZM77.79 709.036L78.1722 708.851L62.4532 676.464L62.0711 676.649L77.79 709.036ZM12.8844 616.53L53.7371 700.702L86.1241 684.983L45.2714 600.811L12.8844 616.53ZM35.2427 552.001C11.2496 563.646 1.23941 592.536 12.8844 616.53L45.2714 600.811C42.3077 594.704 44.8553 587.352 50.9617 584.388L35.2427 552.001ZM58.3693 547.192C50.6115 546.859 42.6669 548.398 35.2427 552.001L50.9617 584.388C52.8865 583.454 54.8836 583.075 56.8278 583.159L58.3693 547.192ZM65.1798 511.939C42.9744 522.716 32.7599 548.24 40.5724 571.016L74.6247 559.335C72.644 553.561 75.2624 547.061 80.8987 544.326L65.1798 511.939ZM103.785 510.382C91.7319 505.692 77.767 505.83 65.1798 511.939L80.8987 544.326C84.1027 542.771 87.62 542.722 90.7288 543.931L103.785 510.382ZM105.147 492.541C92.5599 498.65 83.8116 509.536 80.0395 521.907L114.474 532.407C115.447 529.216 117.662 526.483 120.866 524.928L105.147 492.541Z" fill="black" mask="url(#path-3-inside-2_56_263)"/>
<circle cx="128.5" cy="636.5" r="27.5" fill="#FFC4C4"/>
<mask id="path-6-inside-3_56_263" fill="white">
<path fill-rule="evenodd" clip-rule="evenodd" d="M694.584 508.734C679.535 501.43 661.413 507.709 654.109 522.759L617.615 597.95L605.247 586.431C592.6 575.48 571.37 579.282 560.419 591.928C549.469 604.575 549.069 625.753 561.716 636.703L593.933 671.195L511.467 798.33C496.17 829.848 511.792 868.999 546.359 885.776C580.927 902.553 621.35 890.604 636.647 859.086L687.592 727.178C707.698 723.191 725.973 711.09 737.278 692.657L737.66 692.843L778.513 608.67C785.817 593.62 779.538 575.499 764.489 568.194C759.814 565.926 754.843 564.967 749.992 565.175C754.889 550.9 748.472 534.889 734.552 528.132C726.656 524.3 717.915 524.207 710.334 527.157C707.961 519.376 702.48 512.566 694.584 508.734Z"/>
</mask>
<path fill-rule="evenodd" clip-rule="evenodd" d="M694.584 508.734C679.535 501.43 661.413 507.709 654.109 522.759L617.615 597.95L605.247 586.431C592.6 575.48 571.37 579.282 560.419 591.928C549.469 604.575 549.069 625.753 561.716 636.703L593.933 671.195L511.467 798.33C496.17 829.848 511.792 868.999 546.359 885.776C580.927 902.553 621.35 890.604 636.647 859.086L687.592 727.178C707.698 723.191 725.973 711.09 737.278 692.657L737.66 692.843L778.513 608.67C785.817 593.62 779.538 575.499 764.489 568.194C759.814 565.926 754.843 564.967 749.992 565.175C754.889 550.9 748.472 534.889 734.552 528.132C726.656 524.3 717.915 524.207 710.334 527.157C707.961 519.376 702.48 512.566 694.584 508.734Z" fill="white"/>
<path d="M654.109 522.759L637.915 514.899L637.915 514.899L654.109 522.759ZM617.615 597.95L633.808 605.81C631.315 610.947 626.531 614.597 620.917 615.645C615.303 616.693 609.526 615.014 605.347 611.122L617.615 597.95ZM605.247 586.431L617.03 572.823C617.194 572.966 617.356 573.111 617.515 573.259L605.247 586.431ZM560.419 591.928L546.812 580.145L546.812 580.145L560.419 591.928ZM561.716 636.703L573.498 623.096C573.979 623.512 574.436 623.952 574.87 624.416L561.716 636.703ZM593.933 671.195L607.087 658.908C612.729 664.949 613.532 674.056 609.034 680.99L593.933 671.195ZM511.467 798.33L495.273 790.471C495.597 789.804 495.962 789.157 496.366 788.535L511.467 798.33ZM636.647 859.086L653.438 865.571C653.258 866.037 653.059 866.496 652.841 866.946L636.647 859.086ZM687.592 727.178L670.8 720.693C673.023 714.938 678.039 710.722 684.09 709.522L687.592 727.178ZM737.278 692.657L721.934 683.247C726.774 675.356 736.81 672.422 745.138 676.464L737.278 692.657ZM737.66 692.843L753.854 700.702C751.769 704.997 748.064 708.288 743.553 709.851C739.042 711.414 734.096 711.121 729.801 709.036L737.66 692.843ZM778.513 608.67L762.319 600.811L762.319 600.811L778.513 608.67ZM764.489 568.194L772.348 552.001L772.348 552.001L764.489 568.194ZM749.992 565.175L750.763 583.159C744.819 583.414 739.132 580.714 735.572 575.948C732.011 571.181 731.036 564.963 732.966 559.335L749.992 565.175ZM710.334 527.157L716.862 543.931C712.194 545.748 706.981 545.537 702.474 543.35C697.968 541.163 694.577 537.198 693.116 532.407L710.334 527.157ZM637.915 514.899C649.56 490.906 678.451 480.896 702.444 492.541L686.725 524.928C680.619 521.964 673.266 524.512 670.302 530.618L637.915 514.899ZM601.421 590.091L637.915 514.899L670.302 530.618L633.808 605.81L601.421 590.091ZM617.515 573.259L629.883 584.779L605.347 611.122L592.979 599.603L617.515 573.259ZM546.812 580.145C555.36 570.273 567.476 564.225 579.688 562.506C591.957 560.779 605.983 563.258 617.03 572.823L593.464 600.038C591.864 598.653 588.952 597.557 584.706 598.155C580.404 598.76 576.429 600.937 574.027 603.711L546.812 580.145ZM549.933 650.311C528.323 631.599 530.683 598.772 546.812 580.145L574.027 603.711C568.255 610.377 569.815 619.906 573.498 623.096L549.933 650.311ZM580.778 683.482L548.561 648.99L574.87 624.416L607.087 658.908L580.778 683.482ZM609.034 680.99L526.568 808.126L496.366 788.535L578.831 661.4L609.034 680.99ZM527.66 806.19C517.372 827.389 527.155 856.447 554.219 869.583L538.5 901.97C496.429 881.551 474.968 832.307 495.273 790.471L527.66 806.19ZM554.219 869.583C581.283 882.718 610.165 872.426 620.454 851.227L652.841 866.946C632.536 908.782 580.571 922.389 538.5 901.97L554.219 869.583ZM619.856 852.601L670.8 720.693L704.383 733.663L653.438 865.571L619.856 852.601ZM752.622 702.068C738.597 724.935 715.944 739.906 691.093 744.834L684.09 709.522C699.451 706.476 713.348 697.246 721.934 683.247L752.622 702.068ZM729.801 709.036L729.419 708.851L745.138 676.464L745.52 676.649L729.801 709.036ZM794.706 616.53L753.854 700.702L721.467 684.983L762.319 600.811L794.706 616.53ZM772.348 552.001C796.341 563.646 806.351 592.536 794.706 616.53L762.319 600.811C765.283 594.704 762.736 587.352 756.629 584.388L772.348 552.001ZM749.222 547.192C756.979 546.859 764.924 548.398 772.348 552.001L756.629 584.388C754.704 583.454 752.707 583.075 750.763 583.159L749.222 547.192ZM742.411 511.939C764.616 522.716 774.831 548.24 767.018 571.016L732.966 559.335C734.947 553.561 732.328 547.061 726.692 544.326L742.411 511.939ZM703.806 510.382C715.859 505.692 729.824 505.83 742.411 511.939L726.692 544.326C723.488 542.771 719.971 542.722 716.862 543.931L703.806 510.382ZM702.444 492.541C715.031 498.65 723.779 509.536 727.551 521.907L693.116 532.407C692.144 529.216 689.929 526.483 686.725 524.928L702.444 492.541Z" fill="black" mask="url(#path-6-inside-3_56_263)"/>
<circle cx="27.5" cy="27.5" r="27.5" transform="matrix(-1 -2.3354e-09 -2.3354e-09 1 706.59 609)" fill="#FFC4C4"/>
<path fill-rule="evenodd" clip-rule="evenodd" d="M173.918 62.5C92.2882 103.667 184.185 232.706 260.125 313.767C219.459 351.397 194 405.225 194 465C194 578.771 286.229 671 400 671C513.771 671 606 578.771 606 465C606 405.587 580.848 352.049 540.612 314.452C616.571 233.398 708.583 104.265 626.918 63.0807C546.71 22.631 492.349 164.033 467.775 270.409C446.55 263.017 423.744 259 400 259C376.591 259 354.093 262.905 333.124 270.098C308.579 163.692 254.194 22.0161 173.918 62.5Z" fill="white"/>
<path d="M260.125 313.767L266.238 320.373L272.885 314.222L266.693 307.614L260.125 313.767ZM173.918 62.5L169.865 54.4641L173.918 62.5ZM540.612 314.452L534.045 308.298L527.882 314.875L534.467 321.028L540.612 314.452ZM626.918 63.0807L630.97 55.0447L626.918 63.0807ZM467.775 270.409L464.815 278.908L474.286 282.207L476.544 272.435L467.775 270.409ZM333.124 270.098L324.354 272.121L326.599 281.852L336.044 278.611L333.124 270.098ZM266.693 307.614C228.935 267.309 187.743 215.606 166.083 169.356C155.219 146.156 149.763 125.35 151.237 108.514C152.644 92.4447 160.364 79.4151 177.971 70.5359L169.865 54.4641C146.657 66.1683 135.253 84.7062 133.306 106.943C131.425 128.414 138.384 152.652 149.783 176.99C172.649 225.817 215.376 279.164 253.557 319.92L266.693 307.614ZM203 465C203 407.837 227.335 356.371 266.238 320.373L254.013 307.161C211.583 346.423 185 402.614 185 465H203ZM400 662C291.2 662 203 573.8 203 465H185C185 583.741 281.259 680 400 680V662ZM597 465C597 573.8 508.8 662 400 662V680C518.741 680 615 583.741 615 465H597ZM534.467 321.028C572.959 356.995 597 408.183 597 465H615C615 402.992 588.738 347.104 546.757 307.876L534.467 321.028ZM622.865 71.1166C640.479 79.9994 648.199 93.0362 649.601 109.116C651.07 125.963 645.603 146.784 634.725 169.996C613.038 216.272 571.813 267.997 534.045 308.298L547.179 320.607C585.37 279.854 628.13 226.485 651.024 177.635C662.435 153.284 669.406 129.033 667.533 107.552C665.593 85.3033 654.189 66.7543 630.97 55.0447L622.865 71.1166ZM476.544 272.435C488.759 219.559 508.231 158.735 534.16 116.385C547.153 95.1616 561.233 79.4746 576.012 71.3354C590.216 63.5124 605.512 62.3652 622.865 71.1166L630.97 55.0447C608.22 43.5713 586.643 44.9308 567.328 55.5685C548.587 65.8899 532.503 84.6177 518.808 106.986C491.361 151.818 471.365 214.883 459.006 268.383L476.544 272.435ZM400 268C422.723 268 444.528 271.843 464.815 278.908L470.735 261.909C448.571 254.191 424.765 250 400 250V268ZM336.044 278.611C356.086 271.736 377.597 268 400 268V250C375.584 250 352.1 254.074 330.203 261.585L336.044 278.611ZM177.971 70.5359C195.338 61.7776 210.646 62.933 224.861 70.7752C239.652 78.9346 253.742 94.6531 266.742 115.911C292.682 158.33 312.154 219.231 324.354 272.121L341.893 268.075C329.549 214.56 309.555 151.419 282.098 106.52C268.399 84.1184 252.307 65.3583 233.556 55.0143C214.23 44.3531 192.636 42.9805 169.865 54.4641L177.971 70.5359Z" fill="black"/>
<circle cx="400" cy="480" r="19" fill="#FFC4C4" stroke="black" stroke-width="14"/>
<path d="M485.719 523C482.157 567.223 445.14 602 400 602C354.86 602 317.843 567.223 314.281 523H485.719Z" fill="#FF6565" stroke="black" stroke-width="14"/>
<circle cx="447.571" cy="429.312" r="43.3125" fill="white" stroke="black" stroke-width="14"/>
<circle cx="448.653" cy="429.312" r="13.0168" fill="black" stroke="black" stroke-width="14"/>
<circle cx="352.312" cy="429.312" r="43.3125" fill="white" stroke="black" stroke-width="14"/>
<circle cx="352.313" cy="429.312" r="13.0168" fill="black" stroke="black" stroke-width="14"/>
<path d="M594.5 117C560.752 98.2158 530.679 177.437 513.255 245.092C509.563 259.429 526.125 268.124 535.81 256.927C580.904 204.799 628.143 135.726 594.5 117Z" fill="#FFC4C4"/>
<path d="M202.396 116.805C236.144 98.0212 266.218 177.243 283.641 244.897C287.333 259.234 270.772 267.929 261.086 256.732C215.993 204.604 168.753 135.531 202.396 116.805Z" fill="#FFC4C4"/>
</g>
<defs>
<clipPath id="clip0_56_263">
<rect width="800" height="1000" fill="white"/>
</clipPath>
</defs>
</svg>
